<svg xmlns="http://www.w3.org/2000/svg" xmlns:xlink="http://www.w3.org/1999/xlink" width="1920" zoomAndPan="magnify" viewBox="0 0 1440 809.999993" height="1080" preserveAspectRatio="xMidYMid meet" version="1.0"><defs><clipPath id="b372f5afc2"><path d="M 1096.148438 238.417969 L 1313.605469 238.417969 L 1313.605469 405.003906 L 1096.148438 405.003906 Z M 1096.148438 238.417969 " clip-rule="nonzero"/></clipPath><clipPath id="160ff7d52f"><path d="M 0.148438 0.417969 L 217.605469 0.417969 L 217.605469 167.003906 L 0.148438 167.003906 Z M 0.148438 0.417969 " clip-rule="nonzero"/></clipPath><clipPath id="46f3f8eae2"><rect x="0" width="218" y="0" height="168"/></clipPath><clipPath id="55ca974f5e"><path d="M 504.238281 238.417969 L 709.550781 238.417969 L 709.550781 405.003906 L 504.238281 405.003906 Z M 504.238281 238.417969 " clip-rule="nonzero"/></clipPath><clipPath id="bde695044d"><path d="M 0.238281 0.417969 L 205.550781 0.417969 L 205.550781 167.003906 L 0.238281 167.003906 Z M 0.238281 0.417969 " clip-rule="nonzero"/></clipPath><clipPath id="4a7578eed7"><rect x="0" width="206" y="0" height="168"/></clipPath><clipPath id="76340da048"><path d="M 96.566406 398.46875 L 510.777344 398.46875 L 510.777344 565.054688 L 96.566406 565.054688 Z M 96.566406 398.46875 " clip-rule="nonzero"/></clipPath><clipPath id="9cf09d6f30"><path d="M 0.566406 0.46875 L 414.777344 0.46875 L 414.777344 167.054688 L 0.566406 167.054688 Z M 0.566406 0.46875 " clip-rule="nonzero"/></clipPath><clipPath id="9722c6188b"><rect x="0" width="415" y="0" height="168"/></clipPath><clipPath id="2bd34e6ff5"><path d="M 712.261719 405.003906 L 1096.117188 405.003906 L 1096.117188 571.589844 L 712.261719 571.589844 Z M 712.261719 405.003906 " clip-rule="nonzero"/></clipPath><clipPath id="007adcf5ea"><path d="M 0.261719 0.00390625 L 384.117188 0.00390625 L 384.117188 166.589844 L 0.261719 166.589844 Z M 0.261719 0.00390625 " clip-rule="nonzero"/></clipPath><clipPath id="5acb4a9da9"><rect x="0" width="385" y="0" height="167"/></clipPath></defs><g clip-path="url(#b372f5afc2)"><g transform="matrix(1, 0, 0, 1, 1096, 238)"><g clip-path="url(#46f3f8eae2)"><g clip-path="url(#160ff7d52f)"><rect x="-1412.8" width="2073.6" fill="#11a83c" height="1166.39999" y="-416.199998" fill-opacity="1"/></g></g></g></g><g clip-path="url(#55ca974f5e)"><g transform="matrix(1, 0, 0, 1, 504, 238)"><g clip-path="url(#4a7578eed7)"><g clip-path="url(#bde695044d)"><rect x="-820.8" width="2073.6" fill="#16b1ef" height="1166.39999" y="-416.199998" fill-opacity="1"/></g></g></g></g><g clip-path="url(#76340da048)"><g transform="matrix(1, 0, 0, 1, 96, 398)"><g clip-path="url(#9722c6188b)"><g clip-path="url(#9cf09d6f30)"><rect x="-412.8" width="2073.6" fill="#f92010" height="1166.39999" y="-576.199998" fill-opacity="1"/></g></g></g></g><g clip-path="url(#2bd34e6ff5)"><g transform="matrix(1, 0, 0, 1, 712, 405)"><g clip-path="url(#5acb4a9da9)"><g clip-path="url(#007adcf5ea)"><rect x="-1028.8" width="2073.6" fill="#f92010" height="1166.39999" y="-583.199998" fill-opacity="1"/></g></g></g></g></svg>