<?xml version="1.0" encoding="UTF-8"?><svg id="Layer_2" xmlns="http://www.w3.org/2000/svg" viewBox="0 0 232.32 173.57"><defs><style>.cls-1{fill:#fff;}</style></defs><g id="Layer_1-2"><path class="cls-1" d="M116.16,136.58C51.02,136.58,0,122.83,0,105.28s51.02-31.3,116.16-31.3,116.16,13.75,116.16,31.3-51.02,31.3-116.16,31.3ZM116.16,76.25c-61.73,0-113.88,13.29-113.88,29.03s52.15,29.02,113.88,29.02,113.88-13.29,113.88-29.02-52.15-29.03-113.88-29.03Z"/><path class="cls-1" d="M116.16,173.57c-65.14,0-116.16-13.75-116.16-31.3s51.02-31.3,116.16-31.3,116.16,13.75,116.16,31.3-51.02,31.3-116.16,31.3ZM116.16,113.24c-61.73,0-113.88,13.29-113.88,29.02s52.15,29.02,113.88,29.02,113.88-13.29,113.88-29.02-52.15-29.02-113.88-29.02Z"/><path class="cls-1" d="M116.16,62.61C51.02,62.61,0,48.86,0,31.3S51.02,0,116.16,0s116.16,13.75,116.16,31.3-51.02,31.3-116.16,31.3ZM116.16,2.28C54.43,2.28,2.28,15.57,2.28,31.3s52.15,29.03,113.88,29.03,113.88-13.29,113.88-29.03S177.89,2.28,116.16,2.28Z"/><path class="cls-1" d="M116.16,99.59C51.02,99.59,0,85.84,0,68.29s51.02-31.3,116.16-31.3,116.16,13.75,116.16,31.3-51.02,31.3-116.16,31.3ZM116.16,39.27c-61.73,0-113.88,13.29-113.88,29.03s52.15,29.02,113.88,29.02,113.88-13.29,113.88-29.02-52.15-29.03-113.88-29.03Z"/></g></svg>