<?xml version="1.0" encoding="UTF-8"?><svg id="Layer_2" xmlns="http://www.w3.org/2000/svg" viewBox="0 0 189.92 173.98"><defs><style>.cls-1{fill:#fff;}</style></defs><g id="Layer_1-2"><path class="cls-1" d="M96.09,173.98h-2.27c-1.13-14.78-12.64-26.7-27.35-28.35l-10.09-1.13,10.09-1.13c14.72-1.65,26.22-13.58,27.35-28.35h2.27c1.13,14.77,12.64,26.7,27.35,28.35l10.09,1.13-10.09,1.13c-14.72,1.65-26.22,13.57-27.35,28.35ZM72.36,144.49c10.96,3.21,19.52,11.91,22.6,22.87,3.08-10.97,11.64-19.66,22.6-22.87-10.96-3.21-19.52-11.91-22.6-22.88-3.08,10.97-11.64,19.66-22.6,22.88Z"/><path class="cls-1" d="M152.47,173.98h-2.27c-1.13-14.78-12.64-26.7-27.35-28.35l-10.09-1.13,10.09-1.13c14.72-1.65,26.22-13.58,27.35-28.35h2.27c1.13,14.77,12.64,26.7,27.35,28.35l10.09,1.13-10.09,1.13c-14.72,1.65-26.22,13.57-27.35,28.35ZM128.73,144.49c10.96,3.21,19.52,11.91,22.6,22.87,3.08-10.97,11.64-19.66,22.6-22.87-10.96-3.21-19.52-11.91-22.6-22.88-3.08,10.97-11.64,19.66-22.6,22.88Z"/><path class="cls-1" d="M39.72,173.98h-2.27c-1.13-14.78-12.64-26.7-27.35-28.35l-10.09-1.13,10.09-1.13c14.72-1.65,26.22-13.58,27.35-28.35h2.27c1.13,14.77,12.64,26.7,27.35,28.35l10.09,1.13-10.09,1.13c-14.72,1.65-26.22,13.57-27.35,28.35ZM15.98,144.49c10.96,3.21,19.52,11.91,22.6,22.88,3.08-10.97,11.64-19.66,22.6-22.88-10.96-3.22-19.52-11.91-22.6-22.88-3.08,10.97-11.64,19.66-22.6,22.88Z"/><path class="cls-1" d="M96.09,116.47h-2.27c-1.13-14.78-12.64-26.7-27.35-28.35l-10.09-1.13,10.09-1.13c14.72-1.65,26.22-13.58,27.35-28.35h2.27c1.13,14.77,12.64,26.7,27.35,28.35l10.09,1.13-10.09,1.13c-14.72,1.65-26.22,13.57-27.35,28.35ZM72.36,86.99c10.96,3.21,19.52,11.91,22.6,22.87,3.08-10.97,11.64-19.66,22.6-22.87-10.96-3.21-19.52-11.91-22.6-22.88-3.08,10.97-11.64,19.66-22.6,22.88Z"/><path class="cls-1" d="M152.47,116.47h-2.27c-1.13-14.78-12.64-26.7-27.35-28.35l-10.09-1.13,10.09-1.13c14.72-1.65,26.22-13.58,27.35-28.35h2.27c1.13,14.77,12.64,26.7,27.35,28.35l10.09,1.13-10.09,1.13c-14.72,1.65-26.22,13.57-27.35,28.35ZM128.73,86.99c10.96,3.21,19.52,11.91,22.6,22.87,3.08-10.97,11.64-19.66,22.6-22.87-10.96-3.21-19.52-11.91-22.6-22.88-3.08,10.97-11.64,19.66-22.6,22.88Z"/><path class="cls-1" d="M39.72,116.47h-2.27c-1.13-14.78-12.64-26.7-27.35-28.35l-10.09-1.13,10.09-1.13c14.72-1.65,26.22-13.58,27.35-28.35h2.27c1.13,14.77,12.64,26.7,27.35,28.35l10.09,1.13-10.09,1.13c-14.72,1.65-26.22,13.57-27.35,28.35ZM15.98,86.99c10.96,3.21,19.52,11.91,22.6,22.88,3.08-10.97,11.64-19.66,22.6-22.88-10.96-3.22-19.52-11.91-22.6-22.88-3.08,10.97-11.64,19.66-22.6,22.88Z"/><path class="cls-1" d="M96.09,58.96h-2.27c-1.13-14.78-12.64-26.7-27.35-28.35l-10.09-1.13,10.09-1.13c14.72-1.65,26.22-13.58,27.35-28.35h2.27c1.13,14.77,12.64,26.7,27.35,28.35l10.09,1.13-10.09,1.13c-14.72,1.65-26.22,13.57-27.35,28.35ZM72.36,29.48c10.96,3.21,19.52,11.91,22.6,22.87,3.08-10.97,11.64-19.66,22.6-22.87-10.96-3.21-19.52-11.91-22.6-22.88-3.08,10.97-11.64,19.66-22.6,22.88Z"/><path class="cls-1" d="M152.47,58.96h-2.27c-1.13-14.78-12.64-26.7-27.35-28.35l-10.09-1.13,10.09-1.13c14.72-1.65,26.22-13.58,27.35-28.35h2.27c1.13,14.77,12.64,26.7,27.35,28.35l10.09,1.13-10.09,1.13c-14.72,1.65-26.22,13.57-27.35,28.35ZM128.73,29.48c10.96,3.21,19.52,11.91,22.6,22.87,3.08-10.97,11.64-19.66,22.6-22.87-10.96-3.21-19.52-11.91-22.6-22.88-3.08,10.97-11.64,19.66-22.6,22.88Z"/><path class="cls-1" d="M39.72,58.96h-2.27c-1.13-14.78-12.64-26.7-27.35-28.35l-10.09-1.13,10.09-1.13c14.72-1.65,26.22-13.58,27.35-28.35h2.27c1.13,14.77,12.64,26.7,27.35,28.35l10.09,1.13-10.09,1.13c-14.72,1.65-26.22,13.57-27.35,28.35ZM15.98,29.48c10.96,3.21,19.52,11.91,22.6,22.88,3.08-10.97,11.64-19.66,22.6-22.88-10.96-3.22-19.52-11.91-22.6-22.88-3.08,10.97-11.64,19.66-22.6,22.88Z"/></g></svg>