<?xml version="1.0" encoding="UTF-8"?>
<svg id="Layer_1" data-name="Layer 1" xmlns="http://www.w3.org/2000/svg" viewBox="0 0 1561.9 586.3">
  <defs>
    <style>
      .cls-1 {
        fill: #1d1c1a;
      }

      .cls-2 {
        fill: #060606;
      }

      .cls-3 {
        fill: #121211;
      }

      .cls-4 {
        fill: #f6f7f7;
      }
    </style>
  </defs>
  <g>
    <path class="cls-1" d="M570.47,199.15c-31.72,0-51.47-16.58-53.49-42.39h26.96c.72,13.41,9.66,22.2,25.95,22.2s23.07-5.77,23.07-15.72-6.2-12.26-16.87-14.27l-20.62-3.89c-19.03-3.6-33.88-13.7-33.88-33.88s19.75-37.49,47.01-37.49,48.88,16,50.61,41.53h-26.96c-.87-12.83-9.95-21.48-23.36-21.48s-20.33,7.21-20.33,15.72,7.93,11.97,17.01,13.55l21.63,4.18c22.06,4.33,34.03,14.13,34.03,32.15s-19.32,39.65-50.75,39.65"/>
    <path class="cls-1" d="M694.19,194.97c-5.91,2.88-11.53,4.04-18.74,4.04-19.32,0-31.43-10.67-31.43-31.14v-41.24h-18.89v-20.33h18.89v-26.96h24.22v26.96h26.82v20.33h-26.82v35.76c0,10.53,4.9,14.85,13.7,14.85s8.8-1.01,12.26-2.88v20.62h0Z"/>
    <path class="cls-1" d="M763.4,106.44h24.22v90.98h-22.2v-11.97c-5.05,8.07-15.43,13.7-27.4,13.7-18.74,0-32.44-11.1-32.44-34.75v-57.96h24.37v53.35c0,12.83,6.49,18.46,16.29,18.46s17.16-6.78,17.16-19.03v-52.63h0v-.14Z"/>
    <path class="cls-1" d="M841.4,104.71c11.25,0,20.62,4.76,27.68,13.41v-43.11h24.22v122.42h-22.2v-13.12c-7.35,9.52-17.59,14.85-29.56,14.85-25.23,0-41.53-20.62-41.53-47.15s16.29-47.15,41.53-47.15M846.88,177.96c12.11,0,22.06-9.23,22.06-26.39s-10.24-25.95-22.06-25.95-21.92,8.8-21.92,26.24,9.95,26.1,21.92,26.1"/>
    <path class="cls-1" d="M905.42,151.57c0-27.11,19.47-46.86,46.43-46.86s49.31,23.36,44.84,53.06h-66.47c1.59,14.85,8.94,22.93,21.34,22.93s17.88-5.19,20.62-14.13h24.22c-5.19,20.62-21.48,32.44-44.41,32.44s-46.72-18.89-46.72-47.44M930.65,142.63h40.23c-.72-12.54-8.07-20.62-19.61-20.62s-18.6,7.21-20.62,20.62"/>
    <path class="cls-1" d="M1033.89,197.42h-24.37v-90.98h22.49v12.98c6.78-9.08,16.44-14.71,28.69-14.71,18.74,0,31.72,11.97,31.72,33.88v58.83h-24.22v-50.75c0-13.41-5.48-20.91-16.44-20.91s-17.88,7.5-17.88,22.2v49.6-.14Z"/>
    <path class="cls-1" d="M1167.41,194.97c-5.91,2.88-11.53,4.04-18.74,4.04-19.32,0-31.43-10.67-31.43-31.14v-41.24h-18.89v-20.33h18.89v-26.96h24.22v26.96h26.82v20.33h-26.82v35.76c0,10.53,4.9,14.85,13.7,14.85s8.8-1.01,12.26-2.88v20.62h0Z"/>
    <polygon class="cls-1" points="524.77 374.63 524.77 252.36 605.94 252.36 605.94 274.85 551.3 274.85 551.3 305.71 597.44 305.71 597.44 327.91 551.3 327.91 551.3 374.63 524.77 374.63"/>
    <path class="cls-1" d="M630.6,276.44c-9.52,0-16.15-5.91-16.15-13.99s6.63-14.27,16.15-14.27,16.29,5.91,16.29,14.27-6.63,13.99-16.29,13.99M618.63,283.65h24.37v90.98h-24.37v-90.98Z"/>
    <rect class="cls-1" x="661.17" y="252.36" width="24.51" height="122.42"/>
    <path class="cls-1" d="M704.14,374.63v-90.98h22.49v12.98c6.78-9.23,15.57-14.71,27.97-14.71s22.64,5.77,27.4,16.15c7.35-10.09,16.87-16.15,30.86-16.15s31.72,12.11,31.72,33.88v58.83h-24.22v-51.33c0-12.83-5.62-20.47-16.29-20.47s-17.59,7.35-17.59,20.91v50.75h-24.22v-51.33c0-12.83-5.62-20.47-16.29-20.47s-17.59,7.35-17.59,20.91v50.75h-24.37l.14.29Z"/>
    <polygon class="cls-1" points="897.2 374.63 897.2 252.36 978.52 252.36 978.52 274.85 923.73 274.85 923.73 305.71 969.87 305.71 969.87 327.91 923.73 327.91 923.73 374.63 897.2 374.63"/>
    <path class="cls-1" d="M981.84,328.78c0-27.11,19.47-46.86,46.43-46.86s49.31,23.36,44.84,53.06h-66.47c1.59,14.85,8.94,23.07,21.34,23.07s17.88-5.05,20.62-14.13h24.22c-5.19,20.62-21.48,32.44-44.41,32.44s-46.72-18.89-46.72-47.44M1007.07,319.98h40.23c-.72-12.54-8.07-20.62-19.61-20.62s-18.6,7.21-20.62,20.62"/>
    <path class="cls-1" d="M1123.43,376.36c-26.67,0-41.53-12.4-43.4-32.73h23.36c.14,9.37,8.36,15.28,20.47,15.28s16.73-2.88,16.73-9.37-3.89-8.22-12.83-9.95l-16.87-3.03c-16.87-2.88-26.96-11.97-26.96-26.1s14.85-28.69,38.21-28.69,39.65,12.11,41.38,31.72h-23.36c-.87-8.8-7.64-14.27-18.02-14.27s-14.85,3.17-14.85,9.08,3.89,7.64,12.26,9.23l18.02,3.17c18.17,3.46,27.54,11.53,27.54,24.66,0,19.03-14.85,30.86-41.53,30.86"/>
    <path class="cls-1" d="M1234.31,372.32c-5.91,2.88-11.53,4.04-18.74,4.04-19.32,0-31.43-10.81-31.43-31.14v-41.24h-18.89v-20.33h18.89v-26.96h24.22v26.96h26.82v20.33h-26.82v35.76c0,10.53,4.9,14.85,13.7,14.85s8.8-1.01,12.26-2.88v20.62h0Z"/>
    <path class="cls-1" d="M1258.54,276.44c-9.52,0-16.15-5.91-16.15-13.99s6.63-14.27,16.15-14.27,16.29,5.91,16.29,14.27-6.63,13.99-16.29,13.99M1246.57,283.65h24.37v90.98h-24.37v-90.98Z"/>
    <polygon class="cls-1" points="1339.14 374.63 1312.61 374.63 1278 283.65 1304.24 283.65 1326.59 347.66 1348.94 283.65 1373.45 283.65 1339.14 374.63"/>
    <path class="cls-1" d="M1434.01,363.38c-6.2,8.51-15.43,12.98-28.26,12.98-19.47,0-32.44-11.1-32.44-28.12s14.71-27.25,42.1-27.25,9.8.29,15.57,1.01v-5.48c0-10.24-5.91-16.15-16.15-16.15s-16.87,5.91-17.74,16.15h-21.92c1.44-20.91,17.01-34.6,39.65-34.6s38.93,13.12,38.93,35.47v57.24h-19.75v-11.25h0ZM1411.09,359.92c12.4,0,20.04-6.63,20.04-17.16v-6.49c-5.77-.87-9.8-1.15-13.99-1.15-13.84,0-20.62,4.33-20.62,12.4s5.62,12.4,14.71,12.4"/>
    <rect class="cls-1" x="1471.36" y="252.36" width="24.51" height="122.42"/>
    <path class="cls-1" d="M909.75,481.04h0c5.19,2.16,26.39,5.19,45.27,5.19s40.66-2.16,45.27-3.75v-1.15c-.14-3.46-1.3-8.51-4.18-13.41l6.06-1.3c1.87,3.32,4.04,8.94,4.04,15.14s-.29,4.18-.72,5.33c-6.63,3.17-25.67,6.34-50.61,6.34s-38.35-3.32-41.81-4.76l-3.6-7.5h0l.29-.14ZM976.51,503.96c0,2.31-1.59,3.75-3.89,3.75s-3.75-1.44-3.75-3.75,1.59-3.89,3.75-3.89,3.75,1.59,3.75,3.89"/>
    <path class="cls-1" d="M1027.55,481.76c-.29-1.3-1.44-3.46-4.61-7.79-4.18-6.2-8.51-11.25-12.69-15.72l5.33-4.47c2.88,3.17,6.34,7.79,9.95,12.83,4.47,6.34,6.06,9.95,6.63,12.11,1.59-1.15,3.75-4.47,3.6-9.37l-.72-20.91,6.2-.43.87,23.94c.29,8.8,1.59,11.1,6.49,11.25,2.16,0,4.47.87,4.47,3.75s-.72,3.75-4.47,3.75c-6.06,0-10.38-2.6-11.82-10.09-3.03,6.92-11.97,11.39-21.2,11.39h-1.01l-2.31-5.48c5.05-.58,11.39-2.16,15.28-4.9"/>
    <path class="cls-1" d="M1059.41,466.48c.14,5.05,0,7.64,0,9.08,4.47-5.19,10.38-8.94,16.44-8.94s12.4,5.91,12.4,11.53-.29,3.03-1.01,4.61c1.59.58,3.75.58,5.05.58,2.16,0,4.47.87,4.47,3.75s-.72,3.75-4.47,3.75h-1.01c-4.04,0-7.93-1.15-9.95-2.74,0,0-.29,0-.43.14-3.75,1.59-8.8,2.6-22.2,2.6h-10.24c-3.32,0-4.04-2.31-4.04-3.89s.72-3.6,4.04-3.6h3.6c.58-.72,1.01-1.73,1.3-2.6.58-1.73.43-3.46.29-5.91l-1.15-26.39,6.2-.43.72,18.46h0ZM1061,483.2c8.07,0,15.14-.43,17.59-1.3,2.6-.87,4.47-1.73,4.47-3.75s-2.6-5.33-8.07-5.33-10.81,3.32-16,10.53h2.16l-.14-.14Z"/>
    <path class="cls-1" d="M1087.96,486.95c0-1.44,1.15-3.6,4.18-3.6s6.78-1.87,6.49-7.07l-1.44-27.83,6.2-.43,1.44,28.84c.58,9.66-4.18,13.99-12.69,13.99s-4.18-2.16-4.18-3.89"/>
    <polygon class="cls-1" points="1113.92 448.45 1120.12 448.02 1121.85 490.84 1115.65 490.84 1113.92 448.45"/>
    <path class="cls-1" d="M1155.15,483.63c1.01-1.01,2.02-5.05,3.03-7.79,2.6-7.35,5.48-10.24,10.38-10.24s10.38,6.92,10.38,12.4-2.74,9.66-7.64,9.66-6.78-1.3-10.53-3.75c-.43,1.59-1.15,4.18-2.45,5.77-3.32,4.33-11.97,8.51-19.32,9.95l-3.89-4.04c8.07-3.17,17.16-8.07,20.04-11.97M1171.16,480.46c1.59,0,2.6-1.15,2.6-2.74,0-2.88-2.6-6.06-5.62-6.06s-3.75,1.01-5.19,5.48c2.02,1.73,5.62,3.32,8.22,3.32"/>
    <path class="cls-1" d="M1197.4,481.76c-.29-1.3-1.44-3.46-4.61-7.79-4.18-6.2-8.51-11.25-12.69-15.72l5.33-4.47c2.88,3.17,6.34,7.79,9.95,12.83,4.47,6.34,6.06,9.95,6.63,12.11,1.59-1.15,3.75-4.47,3.6-9.37l-.72-20.91,6.2-.43.87,23.94c.29,8.8,1.59,11.1,6.49,11.25,2.16,0,4.47.87,4.47,3.75s-.72,3.75-4.47,3.75c-6.06,0-10.38-2.6-11.82-10.09-3.03,6.92-11.97,11.39-21.2,11.39h-1.01l-2.31-5.48c5.05-.58,11.39-2.16,15.28-4.9"/>
    <path class="cls-1" d="M1218.31,490.84c-2.6,0-4.18-1.87-4.18-3.89s1.44-3.6,4.04-3.6h3.75c4.47,0,11.97-.58,14.42-1.3,0-.43.14-.87.14-1.44-11.39.58-15.14-5.33-15.14-9.8s.72-5.19,3.32-7.93c2.31-2.45,5.48-3.32,7.35-3.32,4.9,0,10.24,4.76,10.24,15.57s-.43,8.36-1.87,11.68c-1.87,1.3-6.63,4.04-18.6,4.04h-3.6.14ZM1236.91,474.55c.29-3.17-1.73-8.8-5.62-8.8s-4.76,2.02-4.76,4.18,4.04,4.61,10.38,4.61M1226.53,449.03c0-2.31,1.59-3.89,3.75-3.89s3.75,1.59,3.75,3.89-1.44,3.75-3.75,3.75-3.75-1.44-3.75-3.75"/>
    <path class="cls-1" d="M1244.84,444.41l.29-3.46c.58-.29,1.87-.72,2.6-.72-.87-.72-2.02-1.59-2.02-3.6,0-3.46,3.32-5.19,6.49-5.19s4.76.87,5.77,1.59l-1.15,3.32c-1.15-.87-3.03-1.3-4.47-1.3s-3.03.87-3.03,1.87c0,1.73,1.87,2.74,5.05,2.74h4.47l-1.59,3.6h-4.47c-2.88,0-5.91.14-8.07,1.15M1249.31,448.45l6.06-.43,1.73,42.68h-6.2l-1.73-42.39h0l.14.14Z"/>
    <path class="cls-1" d="M1271.37,486.37c6.92,3.03,27.11,8.94,47.87,8.94s38.07-3.75,41.67-8.65c.29-.43.43-1.01.43-2.16,0-3.17-1.73-9.08-5.33-15.86l6.34-1.44c1.44,2.88,4.61,9.8,4.61,16.73s-.43,5.05-1.01,5.91c-4.61,6.92-21.63,12.83-47.29,12.83s-37.92-5.19-43.54-8.36l-3.75-7.79h.14l-.14-.14ZM1320.39,459.7c0-2.31,1.59-3.89,3.75-3.89s3.75,1.59,3.75,3.89-1.44,3.75-3.75,3.75-3.75-1.44-3.75-3.75"/>
    <path class="cls-1" d="M1372.88,448.45l6.2-.43,1.15,27.54c.29,5.62,2.31,7.35,6.34,7.64,2.16,0,4.47.87,4.47,3.75s-.72,3.75-4.47,3.75c-7.93,0-11.97-3.46-12.4-13.12l-1.3-29.27h0v.14Z"/>
    <path class="cls-1" d="M1382.25,487.09c0-1.87,1.15-3.75,4.18-3.75h1.01c6.92,0,13.55-.87,19.47-3.03,2.88-1.01,4.47-1.73,6.06-2.16-4.33-1.59-10.38-4.47-15.28-4.47s-5.77.29-8.36,1.44l1.15-6.49c2.16-1.01,5.33-1.3,7.64-1.3,5.91,0,10.67,2.16,16,4.47,4.61,1.87,6.2,2.31,8.51,2.31h2.45l-1.15,6.63h-.72c-2.88,0-6.2,1.15-10.09,3.32-9.52,5.48-16.73,6.92-25.95,6.92h-1.01c-2.6,0-4.18-1.44-4.18-3.75M1409.64,500.07c0,2.31-1.44,3.75-3.75,3.75s-3.75-1.44-3.75-3.75,1.59-3.89,3.75-3.89,3.75,1.59,3.75,3.89"/>
    <path class="cls-1" d="M1436.18,472.82c1.3,2.45,2.45,4.61,3.32,6.78,1.73,3.03,3.75,3.75,5.91,3.75s4.47.87,4.47,3.75-.72,3.75-4.47,3.75-2.45,0-3.75-.87c0,.87-.14,2.02-.29,2.6-1.59,8.07-8.8,12.83-14.42,12.83s-6.92-1.01-9.08-3.46l.58-5.05c2.31,1.3,5.19,1.73,8.36,1.73s9.23-3.32,9.8-9.52c-.14-2.88-3.75-9.08-6.2-13.55l5.91-2.74h-.14Z"/>
    <path class="cls-1" d="M1474.96,483.2c2.16,0,4.47.87,4.47,3.75s-.72,3.75-4.47,3.75h-5.19c1.87,1.44,2.88,3.03,2.88,5.19,0,5.19-4.76,8.65-9.52,8.65-8.51,0-12.83-7.21-13.84-13.99h-4.04c-3.03,0-4.18-2.02-4.18-3.75s1.15-3.75,4.18-3.75h4.18c1.3-6.92,5.33-14.13,8.8-19.03h1.87c2.74,2.88,9.08,8.94,9.08,14.13s-.43,3.32-1.15,4.9h6.78l.14.14ZM1454.78,490.7c1.01,4.61,4.33,8.07,8.51,8.07s4.04-1.3,4.04-3.03-2.6-5.05-9.23-5.05h-3.32ZM1458.09,483.2c5.19,0,6.06-1.59,6.06-3.32s-2.31-5.62-4.76-7.79c-1.44,2.31-3.75,6.2-4.61,11.1h3.32Z"/>
    <path class="cls-1" d="M1470.35,487.09c0-1.73.87-3.75,4.61-3.75h0c2.74,0,3.89-1.3,5.19-4.47,3.03-7.21,5.48-10.24,10.53-10.24s10.24,7.64,10.24,13.55-2.88,8.65-7.64,8.65-7.07-1.3-10.96-4.04c-1.59,2.45-3.17,4.04-7.35,4.04h-.14c-2.16,0-4.47-1.01-4.47-3.75M1493.27,483.63c1.44,0,2.6-.43,2.6-2.02,0-3.03-2.6-6.78-5.62-6.78s-3.75,1.15-5.19,5.48c2.02,1.73,5.62,3.32,8.22,3.32"/>
    <g>
      <path class="cls-1" d="M538.32,490.27h-16v-42.68h15.14c8.8,0,14.13,4.04,14.13,11.25s-2.45,7.5-6.63,9.23c5.48,1.44,8.36,5.19,8.36,9.95,0,7.79-5.91,12.26-14.85,12.26h-.14ZM528.52,452.63v12.83h8.65c5.33,0,8.22-2.45,8.22-6.49s-2.88-6.49-8.22-6.49h-8.65v.14ZM528.52,470.8v14.13h9.37c5.77,0,8.94-2.74,8.94-7.21s-3.17-6.92-8.94-6.92h-9.37Z"/>
      <path class="cls-1" d="M584.32,479.6h-18.89l-4.04,10.53h-6.78l16.73-42.68h7.35l16.58,42.68h-7.07l-3.89-10.53h0ZM567.59,474.26h14.85l-7.35-19.75-7.5,19.75Z"/>
      <path class="cls-1" d="M600.32,490.27v-42.68h6.63v17.88h22.2v-17.88h6.63v42.68h-6.63v-19.18h-22.2v19.18h-6.63Z"/>
      <path class="cls-1" d="M644.15,490.27v-42.68h16.29c10.09,0,16,4.76,16,13.27s-3.89,10.81-10.53,12.4l11.82,17.01h-8.07l-10.96-16h-8.07v16h-6.63.14ZM650.79,468.64h9.23c6.2,0,9.8-2.74,9.8-7.93s-3.46-7.93-9.8-7.93h-9.23v15.86Z"/>
      <path class="cls-1" d="M708.46,479.6h-18.89l-4.04,10.53h-6.78l16.73-42.68h7.35l16.58,42.68h-7.07l-3.89-10.53ZM691.59,474.26h14.85l-7.35-19.75-7.5,19.75h0Z"/>
      <path class="cls-1" d="M724.32,490.27v-42.68h6.63v42.68h-6.63Z"/>
      <path class="cls-1" d="M745.52,456.81v33.45h-6.2v-42.68h7.35l22.49,32.44v-32.44h6.2v42.68h-6.78l-23.07-33.45Z"/>
      <path class="cls-1" d="M822.37,490.27h-28.69v-3.46l14.13-14.56c4.47-4.61,7.5-7.93,7.5-12.4s-3.17-7.5-8.22-7.5-8.51,3.17-8.51,8.07h-6.06c0-7.93,6.49-13.41,14.85-13.41s14.27,5.48,14.27,12.11-3.75,10.24-9.23,15.72l-9.52,10.24h19.32v5.33l.14-.14Z"/>
      <path class="cls-1" d="M825.25,476.71c0-5.77,2.31-8.94,5.91-13.27l13.7-16h7.07l-13.27,15.86c1.44-.43,2.74-.72,4.04-.72,8.8,0,15.28,5.62,15.28,13.84s-6.92,14.42-16.29,14.42-16.29-6.34-16.29-13.99l-.14-.14ZM851.5,476.57c0-5.77-4.33-9.37-9.95-9.37s-10.09,3.17-10.09,9.23,4.33,9.23,10.09,9.23,9.95-3.75,9.95-9.08Z"/>
    </g>
  </g>
  <g>
    <g>
      <polygon class="cls-2" points="60.99 351.62 135.82 392.86 135.82 521.33 60.99 480.38 60.99 351.62"/>
      <polygon class="cls-1" points="380.22 358.83 135.82 392.86 60.99 351.62 135.82 341.09 210.65 330.42 223.63 328.69 223.63 367.05 360.75 348.3 380.07 358.83 380.22 358.83"/>
      <path class="cls-3" d="M135.82,392.86v128.47l244.11-39.94.29-122.56-244.4,34.03h0ZM366.95,470.43l-218.16,35.61v-101.94l218.3-30.42-.29,96.61h0l.14.14Z"/>
    </g>
    <g>
      <polygon class="cls-2" points="210.65 258.04 210.65 382.33 135.82 341.09 135.82 216.8 148.8 224.01 148.8 253.57 191.77 247.66 210.65 258.04"/>
      <polygon class="cls-4" points="148.8 214.93 148.8 224.01 135.82 216.8 148.8 214.93"/>
      <polygon class="cls-1" points="454.91 224.01 379.79 234.54 210.65 258.04 191.77 247.66 366.81 223.44 366.95 184.22 377.91 182.63 379.93 183.79 454.91 224.01"/>
      <path class="cls-3" d="M379.79,234.54l-169.13,23.5v124.29l169.42-23.5,74.83-10.38v-124.43l-75.27,10.53h.14ZM441.79,337.35l-81.03,10.96-137.12,18.6v-97.61l218.3-30.42-.29,98.34.14.14Z"/>
    </g>
    <g>
      <polygon class="cls-2" points="60.99 99.15 135.82 140.39 135.82 268.86 60.99 227.91 60.99 99.15"/>
      <polygon class="cls-1" points="60.99 99.15 303.08 64.98 380.22 106.36 135.82 140.39 60.99 99.15"/>
      <path class="cls-3" d="M135.82,140.39v128.47l74.83-10.53,169.13-23.79h0v-50.75c.14,0,.43-77.43.43-77.43l-244.4,34.03h0ZM148.8,253.57v-101.94l218.3-30.42-.29,62.87v39.22l-175.19,24.22-42.97,5.91h0l.14.14Z"/>
    </g>
  </g>
</svg>