<?xml version="1.0" encoding="UTF-8"?>
<svg id="Layer_1" data-name="Layer 1" xmlns="http://www.w3.org/2000/svg" viewBox="0 0 400 460">
  <defs>
    <style>
      .cls-1 {
        fill: #050505;
      }

      .cls-2 {
        fill: #f92010;
      }

      .cls-3 {
        fill: #16b0ee;
      }

      .cls-4 {
        fill: #1d1d1b;
      }

      .cls-5 {
        fill: #11a73c;
      }

      .cls-6 {
        fill: #111110;
      }

      .cls-7 {
        fill: #f7f7f7;
      }
    </style>
  </defs>
  <g>
    <g>
      <polygon class="cls-1" points="3.04 288.47 77.87 329.71 77.87 458.18 3.04 417.23 3.04 288.47"/>
      <polygon class="cls-4" points="322.27 295.68 77.87 329.71 3.04 288.47 77.87 277.8 152.71 267.27 165.68 265.54 165.68 303.9 302.81 285.15 322.13 295.68 322.27 295.68"/>
      <path class="cls-6" d="M77.87,329.71v128.47l244.11-39.94.29-122.56-244.4,34.03h0ZM309.01,407.28l-218.16,35.61v-101.94l218.3-30.42-.29,96.61h0l.14.14Z"/>
    </g>
    <g>
      <polygon class="cls-1" points="152.71 194.89 152.71 319.18 77.87 277.8 77.87 153.65 90.85 160.86 90.85 190.42 133.82 184.51 152.71 194.89"/>
      <polygon class="cls-7" points="90.85 151.78 90.85 160.86 77.87 153.65 90.85 151.78"/>
      <polygon class="cls-4" points="396.96 160.86 321.84 171.39 152.71 194.89 133.82 184.51 308.86 160.29 309.01 121.07 319.96 119.48 321.98 120.63 396.96 160.86"/>
      <path class="cls-6" d="M321.84,171.39l-169.13,23.5v124.29l169.42-23.5,74.54-10.38.29-124.43-75.27,10.53h.14ZM383.84,274.19l-81.03,10.96-137.12,18.6v-97.61l218.3-30.42-.29,98.34.14.14Z"/>
    </g>
    <g>
      <polygon class="cls-1" points="3.04 36 77.87 77.23 77.87 205.7 3.04 164.76 3.04 36"/>
      <polygon class="cls-4" points="3.04 36 245.13 1.82 322.27 43.21 77.87 77.23 3.04 36"/>
      <path class="cls-6" d="M77.87,77.23v128.47l74.83-10.53,169.13-23.79h0v-50.75c.14,0,.43-77.43.43-77.43l-244.4,34.03h0ZM90.85,190.42v-101.94l218.3-30.42-.29,62.87v39.22l-175.19,24.22-42.97,5.91h0l.14.14Z"/>
    </g>
  </g>
  <polygon class="cls-2" points="90.85 190.42 90.85 88.48 309.15 58.06 308.86 120.92 308.86 160.14 133.67 184.36 90.71 190.28 90.71 190.28 90.85 190.42"/>
  <polygon class="cls-3" points="383.84 274.19 302.81 285.15 165.68 303.75 165.68 206.14 383.98 175.71 383.69 274.05 383.84 274.19"/>
  <polygon class="cls-5" points="309.01 407.28 90.85 442.89 90.85 340.95 309.15 310.53 308.86 407.13 308.86 407.13 309.01 407.28"/>
</svg>